<mxfile host="app.diagrams.net" agent="Mozilla/5.0 (Windows NT 10.0; Win64; x64) AppleWebKit/537.36 (KHTML, like Gecko) Chrome/130.0.0.0 Safari/537.36" version="25.0.3">
  <diagram name="Trang-1" id="z6GjiB584uZsUZPURLlq">
    <mxGraphModel grid="1" page="1" gridSize="10" guides="1" tooltips="1" connect="1" arrows="1" fold="1" pageScale="1" pageWidth="827" pageHeight="1169" math="0" shadow="0">
      <root>
        <mxCell id="0" />
        <mxCell id="1" parent="0" />
        <mxCell id="uFziZDsNRn6Bn4gqhf4R-3" value="" style="edgeStyle=orthogonalEdgeStyle;rounded=0;orthogonalLoop=1;jettySize=auto;html=1;" edge="1" parent="1" source="uFziZDsNRn6Bn4gqhf4R-1" target="uFziZDsNRn6Bn4gqhf4R-2">
          <mxGeometry relative="1" as="geometry" />
        </mxCell>
        <mxCell id="uFziZDsNRn6Bn4gqhf4R-1" value="Bắt đầu" style="ellipse;whiteSpace=wrap;html=1;" vertex="1" parent="1">
          <mxGeometry x="354" y="-10" width="120" height="80" as="geometry" />
        </mxCell>
        <mxCell id="uFziZDsNRn6Bn4gqhf4R-6" value="" style="edgeStyle=orthogonalEdgeStyle;rounded=0;orthogonalLoop=1;jettySize=auto;html=1;" edge="1" parent="1" source="uFziZDsNRn6Bn4gqhf4R-2" target="uFziZDsNRn6Bn4gqhf4R-5">
          <mxGeometry relative="1" as="geometry" />
        </mxCell>
        <mxCell id="uFziZDsNRn6Bn4gqhf4R-2" value="Nhập vào số n nguyên tố cần in ra" style="shape=parallelogram;perimeter=parallelogramPerimeter;whiteSpace=wrap;html=1;fixedSize=1;" vertex="1" parent="1">
          <mxGeometry x="304" y="100" width="220" height="60" as="geometry" />
        </mxCell>
        <mxCell id="uFziZDsNRn6Bn4gqhf4R-8" value="" style="edgeStyle=orthogonalEdgeStyle;rounded=0;orthogonalLoop=1;jettySize=auto;html=1;" edge="1" parent="1" source="uFziZDsNRn6Bn4gqhf4R-5" target="uFziZDsNRn6Bn4gqhf4R-7">
          <mxGeometry relative="1" as="geometry" />
        </mxCell>
        <mxCell id="uFziZDsNRn6Bn4gqhf4R-5" value="Cho num =2" style="whiteSpace=wrap;html=1;" vertex="1" parent="1">
          <mxGeometry x="10" y="190" width="120" height="60" as="geometry" />
        </mxCell>
        <mxCell id="uFziZDsNRn6Bn4gqhf4R-12" value="" style="edgeStyle=orthogonalEdgeStyle;rounded=0;orthogonalLoop=1;jettySize=auto;html=1;" edge="1" parent="1" source="uFziZDsNRn6Bn4gqhf4R-7" target="uFziZDsNRn6Bn4gqhf4R-11">
          <mxGeometry relative="1" as="geometry" />
        </mxCell>
        <mxCell id="uFziZDsNRn6Bn4gqhf4R-7" value="Cho count = 0" style="whiteSpace=wrap;html=1;" vertex="1" parent="1">
          <mxGeometry x="10" y="330" width="120" height="60" as="geometry" />
        </mxCell>
        <mxCell id="uFziZDsNRn6Bn4gqhf4R-61" style="edgeStyle=orthogonalEdgeStyle;rounded=0;orthogonalLoop=1;jettySize=auto;html=1;entryX=0;entryY=1;entryDx=0;entryDy=0;" edge="1" parent="1" source="uFziZDsNRn6Bn4gqhf4R-9" target="uFziZDsNRn6Bn4gqhf4R-14">
          <mxGeometry relative="1" as="geometry" />
        </mxCell>
        <mxCell id="uFziZDsNRn6Bn4gqhf4R-63" style="edgeStyle=orthogonalEdgeStyle;rounded=0;orthogonalLoop=1;jettySize=auto;html=1;" edge="1" parent="1">
          <mxGeometry relative="1" as="geometry">
            <mxPoint x="70" y="650" as="targetPoint" />
            <mxPoint x="110" y="820" as="sourcePoint" />
            <Array as="points">
              <mxPoint x="71" y="820" />
            </Array>
          </mxGeometry>
        </mxCell>
        <mxCell id="uFziZDsNRn6Bn4gqhf4R-9" value="i &amp;lt;= num" style="rhombus;whiteSpace=wrap;html=1;" vertex="1" parent="1">
          <mxGeometry x="100" y="780" width="80" height="80" as="geometry" />
        </mxCell>
        <mxCell id="uFziZDsNRn6Bn4gqhf4R-50" value="" style="edgeStyle=orthogonalEdgeStyle;rounded=0;orthogonalLoop=1;jettySize=auto;html=1;" edge="1" parent="1" source="uFziZDsNRn6Bn4gqhf4R-11" target="uFziZDsNRn6Bn4gqhf4R-14">
          <mxGeometry relative="1" as="geometry" />
        </mxCell>
        <mxCell id="uFziZDsNRn6Bn4gqhf4R-11" value="Cho i=2" style="whiteSpace=wrap;html=1;" vertex="1" parent="1">
          <mxGeometry x="10" y="470" width="120" height="60" as="geometry" />
        </mxCell>
        <mxCell id="uFziZDsNRn6Bn4gqhf4R-41" value="" style="edgeStyle=orthogonalEdgeStyle;rounded=0;orthogonalLoop=1;jettySize=auto;html=1;" edge="1" parent="1" source="uFziZDsNRn6Bn4gqhf4R-14" target="uFziZDsNRn6Bn4gqhf4R-32">
          <mxGeometry relative="1" as="geometry" />
        </mxCell>
        <mxCell id="uFziZDsNRn6Bn4gqhf4R-59" style="edgeStyle=orthogonalEdgeStyle;rounded=0;orthogonalLoop=1;jettySize=auto;html=1;entryX=0.5;entryY=0;entryDx=0;entryDy=0;" edge="1" parent="1" source="uFziZDsNRn6Bn4gqhf4R-14" target="uFziZDsNRn6Bn4gqhf4R-17">
          <mxGeometry relative="1" as="geometry" />
        </mxCell>
        <mxCell id="uFziZDsNRn6Bn4gqhf4R-14" value="num % i ==0" style="rhombus;whiteSpace=wrap;html=1;" vertex="1" parent="1">
          <mxGeometry x="160" y="460" width="80" height="80" as="geometry" />
        </mxCell>
        <mxCell id="uFziZDsNRn6Bn4gqhf4R-58" value="" style="edgeStyle=orthogonalEdgeStyle;rounded=0;orthogonalLoop=1;jettySize=auto;html=1;" edge="1" parent="1" source="uFziZDsNRn6Bn4gqhf4R-17" target="uFziZDsNRn6Bn4gqhf4R-9">
          <mxGeometry relative="1" as="geometry" />
        </mxCell>
        <mxCell id="uFziZDsNRn6Bn4gqhf4R-17" value="i++" style="whiteSpace=wrap;html=1;" vertex="1" parent="1">
          <mxGeometry x="234" y="730" width="120" height="60" as="geometry" />
        </mxCell>
        <mxCell id="uFziZDsNRn6Bn4gqhf4R-43" value="" style="edgeStyle=orthogonalEdgeStyle;rounded=0;orthogonalLoop=1;jettySize=auto;html=1;" edge="1" parent="1" source="uFziZDsNRn6Bn4gqhf4R-25" target="uFziZDsNRn6Bn4gqhf4R-26">
          <mxGeometry relative="1" as="geometry" />
        </mxCell>
        <mxCell id="uFziZDsNRn6Bn4gqhf4R-25" value="Count ++" style="rounded=1;whiteSpace=wrap;html=1;" vertex="1" parent="1">
          <mxGeometry x="470" y="470" width="120" height="60" as="geometry" />
        </mxCell>
        <mxCell id="uFziZDsNRn6Bn4gqhf4R-44" value="" style="edgeStyle=orthogonalEdgeStyle;rounded=0;orthogonalLoop=1;jettySize=auto;html=1;" edge="1" parent="1" source="uFziZDsNRn6Bn4gqhf4R-26" target="uFziZDsNRn6Bn4gqhf4R-31">
          <mxGeometry relative="1" as="geometry" />
        </mxCell>
        <mxCell id="uFziZDsNRn6Bn4gqhf4R-45" style="edgeStyle=orthogonalEdgeStyle;rounded=0;orthogonalLoop=1;jettySize=auto;html=1;entryX=1;entryY=0.5;entryDx=0;entryDy=0;" edge="1" parent="1" source="uFziZDsNRn6Bn4gqhf4R-26" target="uFziZDsNRn6Bn4gqhf4R-17">
          <mxGeometry relative="1" as="geometry" />
        </mxCell>
        <mxCell id="uFziZDsNRn6Bn4gqhf4R-26" value="Count &amp;lt; n" style="rhombus;whiteSpace=wrap;html=1;rounded=1;" vertex="1" parent="1">
          <mxGeometry x="620" y="690" width="80" height="80" as="geometry" />
        </mxCell>
        <mxCell id="uFziZDsNRn6Bn4gqhf4R-31" value="Kết thúc chương trình" style="ellipse;whiteSpace=wrap;html=1;" vertex="1" parent="1">
          <mxGeometry x="600" y="870" width="120" height="80" as="geometry" />
        </mxCell>
        <mxCell id="uFziZDsNRn6Bn4gqhf4R-42" value="" style="edgeStyle=orthogonalEdgeStyle;rounded=0;orthogonalLoop=1;jettySize=auto;html=1;" edge="1" parent="1" source="uFziZDsNRn6Bn4gqhf4R-32" target="uFziZDsNRn6Bn4gqhf4R-25">
          <mxGeometry relative="1" as="geometry" />
        </mxCell>
        <mxCell id="uFziZDsNRn6Bn4gqhf4R-32" value="In ra giá trị num" style="shape=parallelogram;perimeter=parallelogramPerimeter;whiteSpace=wrap;html=1;fixedSize=1;" vertex="1" parent="1">
          <mxGeometry x="294" y="470" width="120" height="60" as="geometry" />
        </mxCell>
        <mxCell id="uFziZDsNRn6Bn4gqhf4R-49" value="" style="edgeStyle=orthogonalEdgeStyle;rounded=0;orthogonalLoop=1;jettySize=auto;html=1;" edge="1" parent="1" source="uFziZDsNRn6Bn4gqhf4R-36" target="uFziZDsNRn6Bn4gqhf4R-11">
          <mxGeometry relative="1" as="geometry" />
        </mxCell>
        <mxCell id="uFziZDsNRn6Bn4gqhf4R-36" value="num++" style="whiteSpace=wrap;html=1;" vertex="1" parent="1">
          <mxGeometry x="10" y="590" width="120" height="60" as="geometry" />
        </mxCell>
        <mxCell id="uFziZDsNRn6Bn4gqhf4R-40" value="True" style="text;html=1;align=center;verticalAlign=middle;whiteSpace=wrap;rounded=0;" vertex="1" parent="1">
          <mxGeometry x="220" y="470" width="60" height="30" as="geometry" />
        </mxCell>
        <mxCell id="uFziZDsNRn6Bn4gqhf4R-54" value="True" style="text;html=1;align=center;verticalAlign=middle;whiteSpace=wrap;rounded=0;" vertex="1" parent="1">
          <mxGeometry x="570" y="700" width="60" height="30" as="geometry" />
        </mxCell>
        <mxCell id="uFziZDsNRn6Bn4gqhf4R-55" value="False" style="text;html=1;align=center;verticalAlign=middle;whiteSpace=wrap;rounded=0;" vertex="1" parent="1">
          <mxGeometry x="660" y="760" width="60" height="30" as="geometry" />
        </mxCell>
        <mxCell id="uFziZDsNRn6Bn4gqhf4R-57" value="False" style="text;html=1;align=center;verticalAlign=middle;whiteSpace=wrap;rounded=0;" vertex="1" parent="1">
          <mxGeometry x="190" y="550" width="60" height="30" as="geometry" />
        </mxCell>
        <mxCell id="uFziZDsNRn6Bn4gqhf4R-62" value="False" style="text;html=1;align=center;verticalAlign=middle;whiteSpace=wrap;rounded=0;" vertex="1" parent="1">
          <mxGeometry x="130" y="760" width="60" height="30" as="geometry" />
        </mxCell>
        <mxCell id="uFziZDsNRn6Bn4gqhf4R-64" value="True" style="text;html=1;align=center;verticalAlign=middle;whiteSpace=wrap;rounded=0;" vertex="1" parent="1">
          <mxGeometry x="60" y="820" width="60" height="30" as="geometry" />
        </mxCell>
      </root>
    </mxGraphModel>
  </diagram>
</mxfile>
